#!OML:ASF H:\LiuWeirdWalks\Patient Classification 1\Patient 1\Session 1\male.ASF
:FULLY-SPECIFIED
:DEGREES
172
root -0.432095 17.8805 -29.5385 2.25115 18.5301 -1.77935
lowerback 2.12827 3.99446 -0.137456
upperback -1.93263 5.35377 0.778633
thorax -3.26407 2.68265 0.609086
lowerneck -7.69807 0.454369 8.11541
upperneck 16.7273 -0.682514 1.25259
head 6.36109 0.305712 -0.986297
rclavicle 5.47396e-014 1.19271e-015
rhumerus -31.1083 -9.26473 -82.2327
rradius 28.873
rwrist -7.14641
rhand -20.472 -0.436553
rfingers 7.12502
rthumb 5.88417 -30.3348
lclavicle 5.47396e-014 1.19271e-015
lhumerus -36.255 3.93915 80.409
lradius 24.6298
lwrist 3.24219
lhand -11.33 1.43887
lfingers 7.12502
lthumb 14.7026 30.8975
rfemur -7.33515 -7.10848 18.0185
rtibia 29.3954
rfoot -15.7117 -28.0935
rtoes 0.939998
lfemur -11.2866 -3.5472 -15.7771
ltibia 28.4769
lfoot -12.2554 13.8438
ltoes -8.51699
173
root -0.448773 17.8806 -29.535 2.32871 18.2763 -1.75075
lowerback 2.1527 3.89221 -0.202021
upperback -1.92634 5.21655 0.829268
thorax -3.27978 2.61636 0.701749
lowerneck -7.71667 0.402391 8.05642
upperneck 16.6735 -0.768018 1.37784
head 6.34533 0.268118 -0.943156
rclavicle 1.30666e-013 1.91827e-014
rhumerus -31.0905 -9.27516 -82.1506
rradius 28.8123
rwrist -6.98656
rhand -20.4284 -0.356833
rfingers 7.12502
rthumb 5.92618 -30.254
lclavicle 1.30666e-013 1.91827e-014
lhumerus -36.227 3.874 80.508
lradius 24.6381
lwrist 3.25312
lhand -11.3563 1.33683
lfingers 7.12502
lthumb 14.6772 30.7973
rfemur -7.50393 -6.99003 18.0502
rtibia 29.4969
rfoot -15.7663 -27.9749
rtoes 1.00108
lfemur -11.2949 -3.48716 -15.7476
ltibia 28.4324
lfoot -12.2249 14.0045
ltoes -8.50689
174
root -0.466734 17.8808 -29.5315 2.38833 18.0182 -1.76367
lowerback 2.18134 3.78982 -0.231745
upperback -1.91341 5.08074 0.893515
thorax -3.28869 2.55013 0.789239
lowerneck -7.76751 0.36798 7.8914
upperneck 16.6531 -0.826613 1.54966
head 6.34694 0.242051 -0.866007
rclavicle -4.43908e-014 -1.00386e-014
rhumerus -31.0639 -9.28746 -82.0661
rradius 28.737
rwrist -6.81579
rhand -20.3821 -0.278686
rfingers 7.12502
rthumb 5.97097 -30.1745
lclavicle -4.43908e-014 -1.00386e-014
lhumerus -36.2034 3.80391 80.6103
lradius 24.6792
lwrist 3.2626
lhand -11.3899 1.29637
lfingers 7.12502
lthumb 14.6449 30.7592
rfemur -7.66475 -6.83728 18.1356
rtibia 29.5854
rfoot -15.8162 -27.8877
rtoes 1.0549
lfemur -11.3054 -3.44544 -15.6699
ltibia 28.3992
lfoot -12.1932 14.1879
ltoes -8.49346
175
root -0.485649 17.8809 -29.5278 2.43674 17.7565 -1.80304
lowerback 2.21935 3.68892 -0.235796
upperback -1.90438 4.94814 0.963746
thorax -3.30487 2.48499 0.86787
lowerneck -7.81578 0.333488 7.61967
upperneck 16.6357 -0.872962 1.7405
head 6.34941 0.216888 -0.764566
rclavicle -1.45734e-014 -3.18055e-015
rhumerus -31.0556 -9.30734 -81.9788
rradius 28.6589
rwrist -6.64421
rhand -20.3435 -0.228445
rfingers 7.12502
rthumb 6.00814 -30.1233
lclavicle -1.45734e-014 -3.18055e-015
lhumerus -36.2028 3.72358 80.7101
lradius 24.7604
lwrist 3.26638
lhand -11.4278 1.32899
lfingers 7.12502
lthumb 14.6084 30.7945
rfemur -7.81942 -6.66745 18.2549
rtibia 29.6664
rfoot -15.8654 -27.8162
rtoes 1.10408
lfemur -11.3148 -3.4153 -15.5608
ltibia 28.3729
lfoot -12.1671 14.3852
ltoes -8.47257
176
root -0.505113 17.8809 -29.5239 2.48443 17.5017 -1.83991
lowerback 2.26162 3.58711 -0.240977
upperback -1.89806 4.81431 1.03297
thorax -3.32589 2.41928 0.945951
lowerneck -7.85854 0.294066 7.26745
upperneck 16.6068 -0.918753 1.96408
head 6.34749 0.189179 -0.639535
rclavicle 1.02259e-013 1.2921e-015
rhumerus -31.063 -9.33813 -81.885
rradius 28.58
rwrist -6.4986
rhand -20.3109 -0.219618
rfingers 7.12502
rthumb 6.0397 -30.1135
lclavicle 1.02259e-013 1.2921e-015
lhumerus -36.1922 3.6648 80.801
lradius 24.8333
lwrist 3.22144
lhand -11.4867 1.44262
lfingers 7.12502
lthumb 14.5516 30.9122
rfemur -7.96994 -6.50288 18.3727
rtibia 29.7467
rfoot -15.9209 -27.7453
rtoes 1.13793
lfemur -11.3225 -3.39883 -15.4532
ltibia 28.3476
lfoot -12.14 14.5896
ltoes -8.45642
177
root -0.524787 17.8806 -29.5192 2.5375 17.2567 -1.84967
lowerback 2.29904 3.48525 -0.268344
upperback -1.88883 4.67928 1.09457
thorax -3.34195 2.35338 1.02922
lowerneck -7.90633 0.259608 6.92182
upperneck 16.5761 -0.958792 2.18793
head 6.34629 0.164739 -0.515048
rclavicle -3.90969e-015 -5.56597e-015
rhumerus -31.0796 -9.39013 -81.7803
rradius 28.4935
rwrist -6.3643
rhand -20.2713 -0.200819
rfingers 7.12502
rthumb 6.07786 -30.0936
lclavicle -3.90969e-015 -5.56597e-015
lhumerus -36.1642 3.62219 80.8841
lradius 24.8993
lwrist 3.16107
lhand -11.5318 1.54433
lfingers 7.12502
lthumb 14.5082 31.0171
rfemur -8.11401 -6.36336 18.4588
rtibia 29.8323
rfoot -15.9825 -27.6591
rtoes 1.15862
lfemur -11.3211 -3.38557 -15.3746
ltibia 28.3159
lfoot -12.1163 14.7893
ltoes -8.43159
178
root -0.544466 17.8801 -29.5132 2.59677 17.0119 -1.83365
lowerback 2.32215 3.39461 -0.322359
upperback -1.87982 4.55797 1.14963
thorax -3.35165 2.29489 1.12089
lowerneck -7.97367 0.213994 6.53246
upperneck 16.5596 -1.01572 2.44879
head 6.3532 0.133181 -0.372954
rclavicle -3.02603e-014 0
rhumerus -31.1238 -9.47758 -81.6514
rradius 28.4126
rwrist -6.25167
rhand -20.2334 -0.211488
rfingers 7.12502
rthumb 6.11444 -30.1033
lclavicle -3.02603e-014 0
lhumerus -36.1085 3.58689 80.9667
lradius 24.9316
lwrist 3.08833
lhand -11.5647 1.59985
lfingers 7.12502
lthumb 14.4765 31.0749
rfemur -8.25501 -6.24325 18.5143
rtibia 29.926
rfoot -16.049 -27.5554
rtoes 1.163
lfemur -11.3086 -3.36548 -15.3237
ltibia 28.2761
lfoot -12.0969 14.9839
ltoes -8.41643
179
root -0.563677 17.8791 -29.5059 2.65492 16.7668 -1.78924
lowerback 2.44398 3.0452 -0.132909
upperback -1.88915 4.09842 1.12849
thorax -3.40319 2.06088 1.0121
lowerneck -7.94625 0.45605 5.97363
upperneck 16.5155 -0.672391 2.8591
head 6.34258 0.294092 -0.124509
rclavicle 1.41308e-014 5.56597e-015
rhumerus -31.0245 -8.97954 -81.9621
rradius 28.2382
rwrist -6.08923
rhand -20.2112 -0.186372
rfingers 7.12502
rthumb 6.13587 -30.0775
lclavicle 1.41308e-014 5.56597e-015
lhumerus -36.2327 4.14354 80.613
lradius 25.0401
lwrist 3.08498
lhand -11.5947 1.63392
lfingers 7.12502
lthumb 14.4476 31.111
rfemur -8.38048 -6.14628 18.5325
rtibia 30.0242
rfoot -16.1172 -27.4273
rtoes 1.15676
lfemur -11.276 -3.34269 -15.3062
ltibia 28.2311
lfoot -12.083 15.1788
ltoes -8.39822
180
root -0.583937 17.8782 -29.4985 2.72355 16.5422 -1.74585
lowerback 2.55098 2.74207 0.00356303
upperback -1.9035 3.69954 1.1214
thorax -3.46043 1.8586 0.94526
lowerneck -7.97978 0.649117 5.44564
upperneck 16.5025 -0.402014 3.24503
head 6.34808 0.421482 0.105723
rclavicle -1.32471e-015 -6.16232e-015
rhumerus -30.9679 -8.59194 -82.1804
rradius 28.0695
rwrist -5.94079
rhand -20.2101 -0.146339
rfingers 7.12502
rthumb 6.137 -30.0374
lclavicle -1.32471e-015 -6.16232e-015
lhumerus -36.3182 4.59014 80.3399
lradius 25.1434
lwrist 3.11848
lhand -11.6023 1.66912
lfingers 7.12502
lthumb 14.4402 31.1467
rfemur -8.51617 -6.05878 18.5579
rtibia 30.1224
rfoot -16.1887 -27.3102
rtoes 1.15227
lfemur -11.2627 -3.31246 -15.2816
ltibia 28.1871
lfoot -12.0603 15.349
ltoes -8.40629
181
root -0.605009 17.8772 -29.4908 2.79737 16.319 -1.72185
lowerback 2.61526 2.49474 0.0965704
upperback -1.89475 3.37384 1.13767
thorax -3.4769 1.69415 0.925914
lowerneck -8.03373 0.812623 5.03069
upperneck 16.4262 -0.172939 3.54907
head 6.33434 0.527637 0.288128
rclavicle -4.08176e-014 1.98785e-016
rhumerus -30.8942 -8.32908 -82.3026
rradius 27.8897
rwrist -5.78896
rhand -20.2273 -0.116057
rfingers 7.12502
rthumb 6.1204 -30.0076
lclavicle -4.08176e-014 1.98785e-016
lhumerus -36.3236 4.93049 80.1623
lradius 25.2473
lwrist 3.1838
lhand -11.6 1.68754
lfingers 7.12502
lthumb 14.4424 31.165
rfemur -8.66174 -5.96564 18.6085
rtibia 30.2164
rfoot -16.2612 -27.1983
rtoes 1.15262
lfemur -11.2652 -3.28472 -15.2325
ltibia 28.1491
lfoot -12.037 15.5216
ltoes -8.41756
182
root -0.626846 17.8763 -29.4835 2.87829 16.1094 -1.71117
lowerback 2.64936 2.34219 0.112707
upperback -1.88782 3.17234 1.17924
thorax -3.48685 1.59388 0.969821
lowerneck -8.13352 0.869061 4.67328
upperneck 16.3808 -0.0933146 3.80303
head 6.33642 0.563036 0.433898
rclavicle -2.49133e-014 9.14409e-015
rhumerus -30.8731 -8.29496 -82.255
rradius 27.7078
rwrist -5.63279
rhand -20.2452 -0.0744329
rfingers 7.12502
rthumb 6.10314 -29.9665
lclavicle -2.49133e-014 9.14409e-015
lhumerus -36.2706 5.03434 80.1488
lradius 25.3509
lwrist 3.26286
lhand -11.6179 1.74358
lfingers 7.12502
lthumb 14.4252 31.2223
rfemur -8.81596 -5.8821 18.6769
rtibia 30.3045
rfoot -16.3342 -27.089
rtoes 1.15466
lfemur -11.2902 -3.25922 -15.1653
ltibia 28.1213
lfoot -12.0041 15.6866
ltoes -8.44927
183
root -0.64923 17.8754 -29.476 2.96556 15.8939 -1.70618
lowerback 2.5703 2.5772 -0.236177
upperback -1.86583 3.47568 1.31182
thorax -3.45466 1.75537 1.28694
lowerneck -8.39036 0.517963 4.60162
upperneck 16.4146 -0.585754 3.82908
head 6.39031 0.326798 0.416201
rclavicle 5.54733e-015 5.96354e-016
rhumerus -31.0852 -9.13954 -81.5593
rradius 27.6265
rwrist -5.52425
rhand -20.2611 -0.070487
rfingers 7.12502
rthumb 6.08775 -29.963
lclavicle 5.54733e-015 5.96354e-016
lhumerus -35.9437 4.26464 80.7622
lradius 25.3535
lwrist 3.29092
lhand -11.6376 1.79156
lfingers 7.12502
lthumb 14.4062 31.2716
rfemur -8.9775 -5.80358 18.7523
rtibia 30.3879
rfoot -16.4048 -26.9691
rtoes 1.16601
lfemur -11.3274 -3.24457 -15.0911
ltibia 28.1032
lfoot -11.9702 15.8677
ltoes -8.47723
184
root -0.67167 17.8745 -29.4682 3.05899 15.6635 -1.70541
lowerback 2.41874 2.84679 -0.615702
upperback -1.85453 3.82553 1.4666
thorax -3.40314 1.94112 1.6449
lowerneck -8.56371 0.103777 4.41627
upperneck 16.4841 -1.15186 3.91207
head 6.44176 0.0533517 0.428412
rclavicle -6.14897e-014 -1.13307e-014
rhumerus -31.3785 -10.0239 -80.7757
rradius 27.5469
rwrist -5.44489
rhand -20.2715 -0.0696279
rfingers 7.12502
rthumb 6.0777 -29.9625
lclavicle -6.14897e-014 -1.13307e-014
lhumerus -35.6559 3.43592 81.4358
lradius 25.365
lwrist 3.31021
lhand -11.6544 1.8577
lfingers 7.12502
lthumb 14.39 31.3389
rfemur -9.14697 -5.72814 18.8303
rtibia 30.4682
rfoot -16.4765 -26.8326
rtoes 1.17925
lfemur -11.3705 -3.23443 -15.0143
ltibia 28.0904
lfoot -11.9328 16.0691
ltoes -8.51563
185
root -0.694884 17.8738 -29.4607 3.16437 15.4318 -1.69829
lowerback 2.27429 3.07765 -0.956654
upperback -1.87069 4.12629 1.60926
thorax -3.38483 2.10162 1.97116
lowerneck -8.63458 -0.277167 4.18808
upperneck 16.56 -1.66431 4.02533
head 6.47942 -0.19508 0.460962
rclavicle -3.01035e-014 2.98177e-015
rhumerus -31.7122 -10.8125 -80.037
rradius 27.449
rwrist -5.36066
rhand -20.2569 -0.050218
rfingers 7.12502
rthumb 6.09178 -29.9426
lclavicle -3.01035e-014 2.98177e-015
lhumerus -35.4363 2.69366 82.0391
lradius 25.3859
lwrist 3.33953
lhand -11.6831 1.93437
lfingers 7.12502
lthumb 14.3624 31.4175
rfemur -9.32949 -5.6515 18.905
rtibia 30.5465
rfoot -16.5444 -26.6965
rtoes 1.19336
lfemur -11.4269 -3.22089 -14.9418
ltibia 28.0791
lfoot -11.8972 16.2669
ltoes -8.53586
186
root -0.718933 17.8729 -29.4515 3.25993 15.1989 -1.69038
lowerback 2.13427 3.27587 -1.26403
upperback -1.88806 4.38526 1.73978
thorax -3.36975 2.24045 2.26885
lowerneck -8.70462 -0.628027 3.90606
upperneck 16.6721 -2.13717 4.18483
head 6.53129 -0.422658 0.519998
rclavicle 4.43321e-014 1.43125e-014
rhumerus -32.0574 -11.5248 -79.3505
rradius 27.3483
rwrist -5.26806
rhand -20.2305 -0.0519227
rfingers 7.12502
rthumb 6.11731 -29.9436
lclavicle 4.43321e-014 1.43125e-014
lhumerus -35.2503 2.01948 82.5789
lradius 25.4223
lwrist 3.39535
lhand -11.7003 1.99843
lfingers 7.12502
lthumb 14.3458 31.4828
rfemur -9.49314 -5.56397 18.9838
rtibia 30.6222
rfoot -16.6184 -26.5716
rtoes 1.19751
lfemur -11.4625 -3.2033 -14.8659
ltibia 28.0643
lfoot -11.8775 16.4609
ltoes -8.54357
